<svg xmlns="http://www.w3.org/2000/svg" width="17" height="17" viewBox="0 0 17 17" fill="none">
    <path d="M17 7.65C17 6.7065 16.3045 5.95 15.4545 5.95H10.5709L11.3127 2.0655C11.3282 1.9805 11.3359 1.887 11.3359 1.7935C11.3359 1.445 11.2045 1.122 10.9959 0.8925L10.1768 0L5.09227 5.593C4.80636 5.9075 4.63636 6.3325 4.63636 6.8V15.3C4.63636 15.7509 4.79919 16.1833 5.08902 16.5021C5.37885 16.8209 5.77194 17 6.18182 17H13.1364C13.7777 17 14.3264 16.575 14.5582 15.963L16.8918 9.9705C16.9614 9.775 17 9.571 17 9.35V7.65ZM0 17H3.09091V6.8H0V17Z" fill="black"/>
</svg>